<svg width="13" height="15" viewBox="0 0 13 15" fill="none" xmlns="http://www.w3.org/2000/svg">
<path opacity="0.1" d="M1.625 4.26177C1.625 8.97668 5.14143 12.7989 9.47917 12.7989C9.83992 12.7989 10.195 12.7725 10.5428 12.7213C11.0363 12.6487 11.375 12.1685 11.375 11.6273V10.115C11.375 9.60819 11.0766 9.1582 10.6343 8.99794L8.92889 8.38002C8.49528 8.22294 8.03032 8.50031 7.91949 8.98233C7.77156 9.62556 7.03463 9.84741 6.6033 9.37857L4.77168 7.38771C4.34038 6.91888 4.5445 6.11788 5.13624 5.95708C5.57971 5.83658 5.83489 5.33123 5.69037 4.85987L5.12192 3.00624C4.97446 2.52541 4.56048 2.20108 4.09418 2.20108H2.70294C2.20502 2.20108 1.76322 2.56925 1.69642 3.10559C1.64932 3.48368 1.625 3.86964 1.625 4.26177Z" fill="white"/>
<path d="M1.625 4.26177C1.625 8.97668 5.14143 12.7989 9.47917 12.7989C9.83992 12.7989 10.195 12.7725 10.5428 12.7213C11.0363 12.6487 11.375 12.1685 11.375 11.6273V10.115C11.375 9.60819 11.0766 9.1582 10.6343 8.99794L8.92889 8.38002C8.49528 8.22294 8.03032 8.50031 7.91949 8.98233C7.77156 9.62556 7.03462 9.84741 6.6033 9.37857L4.77168 7.38771C4.34038 6.91888 4.5445 6.11788 5.13624 5.95708C5.57971 5.83658 5.83489 5.33123 5.69037 4.85987L5.12192 3.00624C4.97446 2.52541 4.56048 2.20108 4.09418 2.20108H2.70294C2.20502 2.20108 1.76322 2.56925 1.69642 3.10559C1.64932 3.48368 1.625 3.86964 1.625 4.26177Z" fill="#D9D9D9"/>
</svg>
