<svg width="15" height="15" viewBox="0 0 15 15" fill="none" xmlns="http://www.w3.org/2000/svg">
<path d="M6.43329 8.52654C6.47721 8.56874 6.50189 8.62594 6.50189 8.68559C6.50189 8.74524 6.47721 8.80245 6.43329 8.84464L3.79511 11.3776C3.77333 11.3985 3.74749 11.415 3.71904 11.4263C3.6906 11.4376 3.66011 11.4434 3.62933 11.4434C3.56716 11.4434 3.50755 11.4197 3.46362 11.3774C3.41968 11.3352 3.39501 11.278 3.39503 11.2183C3.39506 11.1586 3.41978 11.1014 3.46376 11.0592L6.10195 8.52654C6.1459 8.48438 6.20549 8.4607 6.26762 8.4607C6.32975 8.4607 6.38934 8.48438 6.43329 8.52654ZM12.5487 11.2265C12.5368 11.2637 12.5151 11.2973 12.4856 11.324C12.4562 11.3507 12.42 11.3696 12.3807 11.3789C12.3414 11.3882 12.3002 11.3876 12.2612 11.377C12.2222 11.3665 12.1867 11.3464 12.1582 11.3188L11.3628 10.5552L10.9307 10.9703L11.7264 11.7345C11.7549 11.7619 11.7756 11.796 11.7863 11.8334C11.7971 11.8708 11.7976 11.9103 11.7879 11.9479C11.7781 11.9855 11.7583 12.0201 11.7305 12.0483C11.7027 12.0764 11.6677 12.0972 11.6291 12.1085C11.4859 12.1502 11.337 12.1711 11.1873 12.1707C10.7291 12.1707 10.2565 11.9823 9.90087 11.6408C9.56074 11.3143 9.36327 10.8879 9.3495 10.4579L7.81493 8.98442C7.79593 8.97432 7.77847 8.96173 7.76308 8.94701L7.5999 8.79036C7.5383 8.98602 7.42707 9.16394 7.27616 9.30814L4.4206 12.0495C4.19385 12.2697 3.88831 12.3988 3.56601 12.4106H3.52206C3.3724 12.4121 3.22394 12.3849 3.08532 12.3307C2.9467 12.2765 2.82069 12.1964 2.71464 12.095C2.2579 11.6566 2.27958 10.922 2.76327 10.4576L5.61884 7.71626C5.76905 7.57154 5.95425 7.46477 6.1579 7.40548L5.99531 7.24939C5.97998 7.23461 5.96686 7.21785 5.95634 7.19961L4.41679 5.72136C3.96913 5.70842 3.52529 5.51886 3.18632 5.19233C2.71435 4.73867 2.52304 4.08786 2.69882 3.53295C2.71063 3.4958 2.73226 3.46221 2.7616 3.43547C2.79095 3.40872 2.827 3.38972 2.86626 3.38032C2.90552 3.37092 2.94665 3.37143 2.98564 3.38182C3.02463 3.3922 3.06016 3.4121 3.08876 3.43958L3.88446 4.20317L4.31689 3.78776L3.52001 3.02558C3.49139 2.99812 3.47067 2.96401 3.45985 2.92658C3.44903 2.88915 3.44849 2.84967 3.45829 2.81198C3.46808 2.77429 3.48787 2.73967 3.51573 2.7115C3.54359 2.68334 3.57858 2.66257 3.61728 2.65123C4.19472 2.48248 4.87323 2.66558 5.34579 3.11895C5.68622 3.44548 5.88368 3.87186 5.89745 4.30217L7.94823 6.27092L11.1067 3.23679C11.1229 3.22083 11.1416 3.20736 11.1621 3.19686L12.2549 2.63436C12.2991 2.61175 12.3498 2.60338 12.3994 2.61046C12.449 2.61754 12.4949 2.6397 12.5304 2.67369C12.5659 2.70768 12.5891 2.75171 12.5967 2.7993C12.6042 2.84689 12.5956 2.89554 12.5722 2.93811L11.9839 3.98717C11.9731 4.00651 11.9593 4.02423 11.9432 4.03976L8.78349 7.07304L10.8299 9.03758C11.2775 9.05051 11.7211 9.24008 12.0603 9.56661C12.5335 10.0203 12.7245 10.6714 12.5487 11.2254V11.2265ZM8.2831 8.12942L6.84755 6.75129L6.49921 7.08542L7.93476 8.46354L8.2831 8.12942ZM7.80966 7.03817L7.98339 7.20495L11.5869 3.74558L11.7891 3.38501L11.4132 3.57879L7.80966 7.03817ZM4.67958 5.33829L6.16757 6.76676L6.68144 6.27345C6.72539 6.23129 6.78498 6.2076 6.84711 6.2076C6.90925 6.2076 6.96884 6.23129 7.01279 6.27345L7.47802 6.72008L7.61542 6.58817L5.49697 4.55445C5.47424 4.53265 5.45643 4.50659 5.44464 4.4779C5.43284 4.44921 5.42732 4.41849 5.42841 4.38767C5.44042 4.04792 5.28954 3.70142 5.01415 3.43733C4.79692 3.2249 4.51245 3.08761 4.20527 3.04695L4.81288 3.63054C4.8568 3.67274 4.88148 3.72994 4.88148 3.78959C4.88148 3.84924 4.8568 3.90645 4.81288 3.94864L4.04882 4.68214C4.00487 4.7243 3.94528 4.74799 3.88315 4.74799C3.82101 4.74799 3.76142 4.7243 3.71747 4.68214L3.11015 4.09911C3.15263 4.39356 3.29515 4.66633 3.51562 4.87508C3.79101 5.13917 4.15165 5.28401 4.50497 5.27248H4.51318C4.54406 5.27238 4.57466 5.27815 4.60322 5.28944C4.63178 5.30074 4.65773 5.31734 4.67958 5.33829ZM7.18183 8.38901L6.57597 7.80767C6.46082 7.79965 6.34524 7.81577 6.23723 7.85491C6.12922 7.89406 6.03138 7.95529 5.95048 8.03436L3.09462 10.7765C2.79374 11.0654 2.77236 11.5145 3.04628 11.7778C3.1123 11.8402 3.19112 11.8886 3.27773 11.9202C3.36433 11.9517 3.45682 11.9655 3.54931 11.9609C3.75302 11.953 3.94596 11.8709 4.08896 11.7314L6.94482 8.99061C7.09014 8.85333 7.17561 8.66811 7.18388 8.47254C7.18499 8.44469 7.18431 8.41679 7.18183 8.38901ZM12.1362 10.6607C12.0937 10.3661 11.9508 10.0934 11.7299 9.88498C11.4545 9.62061 11.0938 9.47604 10.7408 9.48758C10.7087 9.48862 10.6767 9.48332 10.6468 9.472C10.6169 9.46068 10.5898 9.44358 10.5671 9.42176L8.45214 7.39142L8.31474 7.52332L8.78027 7.97051C8.82419 8.0127 8.84886 8.06991 8.84886 8.12956C8.84886 8.18921 8.82419 8.24642 8.78027 8.28861L8.26669 8.78164L9.74941 10.2056C9.7721 10.2274 9.78989 10.2534 9.80168 10.282C9.81347 10.3107 9.81901 10.3413 9.81796 10.3721C9.80624 10.7119 9.95712 11.0584 10.2322 11.3227C10.4495 11.535 10.734 11.6722 11.0411 11.7128L10.4335 11.1295C10.4117 11.1086 10.3944 11.0838 10.3826 11.0565C10.3708 11.0292 10.3648 10.9999 10.3648 10.9703C10.3648 10.9408 10.3708 10.9115 10.3826 10.8842C10.3944 10.8568 10.4117 10.832 10.4335 10.8111L11.1976 10.0776C11.2415 10.0355 11.3011 10.0118 11.3632 10.0118C11.4254 10.0118 11.485 10.0355 11.5289 10.0776L12.1362 10.6607Z" fill="white"/>
</svg>
