<svg width="14" height="15" viewBox="0 0 14 15" fill="none" xmlns="http://www.w3.org/2000/svg">
<path fill-rule="evenodd" clip-rule="evenodd" d="M8.74999 2.25L9.33332 2.83333L9.3333 4H12.8333V12.1667H1.16666V4H4.66666V2.83333L5.24999 2.25H8.74999ZM2.33332 8.2912L2.33332 11H11.6667L11.6667 8.29119C10.5011 8.62466 9.33428 8.83326 8.16667 8.91667L8.16666 9.83333H5.83332L5.83331 8.91667C4.6657 8.83326 3.49885 8.62466 2.33332 8.2912ZM11.6667 5.16667H2.33332L2.33333 7.07434C3.89115 7.55286 5.44615 7.79167 6.99999 7.79167C8.55384 7.79167 10.1088 7.55286 11.6667 7.07434L11.6667 5.16667ZM8.16666 3.41667H5.83332V4H8.16666V3.41667Z" fill="white"/>
</svg>
